<?xml version="1.0" encoding="UTF-8" standalone="no"?>
<!-- Generator: Adobe Illustrator 19.2.0, SVG Export Plug-In . SVG Version: 6.00 Build 0)  -->

<svg
   version="1.1"
   id="Layer_1"
   x="0px"
   y="0px"
   viewBox="0 0 960 960"
   style="enable-background:new 0 0 960 960;"
   xml:space="preserve"
   sodipodi:docname="favicon.svg"
   inkscape:version="1.4.2 (2aeb623e1d, 2025-05-12)"
   xmlns:inkscape="http://www.inkscape.org/namespaces/inkscape"
   xmlns:sodipodi="http://sodipodi.sourceforge.net/DTD/sodipodi-0.dtd"
   xmlns="http://www.w3.org/2000/svg"
   xmlns:svg="http://www.w3.org/2000/svg"><defs
   id="defs5" /><sodipodi:namedview
   id="namedview5"
   pagecolor="#ffffff"
   bordercolor="#000000"
   borderopacity="0.25"
   inkscape:showpageshadow="2"
   inkscape:pageopacity="0.0"
   inkscape:pagecheckerboard="0"
   inkscape:deskcolor="#d1d1d1"
   showgrid="false"
   inkscape:zoom="0.83645833"
   inkscape:cx="478.80449"
   inkscape:cy="527.82067"
   inkscape:window-width="1856"
   inkscape:window-height="1011"
   inkscape:window-x="64"
   inkscape:window-y="32"
   inkscape:window-maximized="1"
   inkscape:current-layer="g5" />
<style
   type="text/css"
   id="style1">
	.st0{fill:#E8815D;}
	.st1{fill:#F69B76;}
	.st2{fill:#D83945;}
	.st3{fill:#EA3D53;}
</style>
<g
   id="g5">
	<rect
   style="fill:#ffffff;fill-opacity:1;stroke-width:1.09265"
   id="rect1"
   width="914.39581"
   height="948.35907"
   x="24.084885"
   y="5.9775815"
   rx="87.41188"
   ry="87.41188" /><path
   class="st0"
   d="M 759.82131,836.81476 H 188.15366 c -10.34957,0 -18.72223,-8.37268 -18.72223,-18.72223 V 382.13197 c 0,-10.34956 8.37266,-18.72223 18.72223,-18.72223 h 571.66765 c 10.34956,0 18.72224,8.37267 18.72224,18.72223 v 435.96056 c 0,10.34955 -8.37268,18.72223 -18.72224,18.72223 z"
   id="path1"
   style="fill:#005884;fill-opacity:1;stroke-width:1.16287" />
	<path
   class="st1"
   d="m 792.73059,429.92599 h -637.4862 c -10.34956,0 -18.72223,-8.37268 -18.72223,-18.72223 V 263.63535 c 0,-10.34955 8.37267,-18.72223 18.72223,-18.72223 h 637.4862 c 10.34955,0 18.72223,8.37268 18.72223,18.72223 v 147.56841 c 0,10.34955 -8.37268,18.72223 -18.72223,18.72223 z"
   id="path2"
   sodipodi:nodetypes="sssssssss"
   style="fill:#0089c2;fill-opacity:1;stroke-width:1.16287" />
	<path
   class="st2"
   d="m 492.24457,258.40243 h -23.25743 c -19.18738,0 -34.88615,-15.58248 -34.88615,-34.88615 v -7.2098 c 0,-19.18738 15.58248,-34.88614 34.88615,-34.88614 h 23.25743 c 19.18738,0 34.88615,15.58247 34.88615,34.88614 v 7.2098 c 0,19.30367 -15.58248,34.88615 -34.88615,34.88615 z"
   id="path3"
   style="fill:#00aa00;stroke-width:1.16287" />
	<rect
   x="392.23764"
   y="429.92596"
   class="st2"
   width="163.15088"
   height="406.88876"
   id="rect3"
   style="fill:#005500;stroke-width:1.16287" />
	<rect
   x="377.70175"
   y="244.9131"
   class="st3"
   width="192.22267"
   height="185.01288"
   id="rect4"
   style="fill:#008000;stroke-width:1.16287" />
	<path
   class="st2"
   d="M 459.45159,197.93311 355.60716,130.83542 C 304.32453,97.693578 236.6454,134.55661 236.6454,195.60736 v 0 c 0,27.21121 22.09457,49.30576 49.30575,49.30576 h 162.45316 c 11.27985,0 20.46654,-9.18669 20.46654,-20.46654 v -9.41925 c -0.11629,-6.86095 -3.60491,-13.37304 -9.41926,-17.09422 z m -59.53903,24.4203 H 310.0226 c -10.931,0 -19.76883,-8.83782 -19.76883,-19.76881 v 0 c 0,-35.81645 39.65393,-57.32958 69.65602,-37.90962 l 48.72432,31.51382 c 5.3492,3.37232 7.90753,10.00069 5.81436,16.3965 -1.97689,6.04692 -8.1401,9.76811 -14.53591,9.76811 z"
   id="path4"
   sodipodi:nodetypes="ccsssssccsssscccs"
   style="fill:#00aa00;stroke-width:1.16287" />
	<path
   class="st2"
   d="m 489.10482,215.1436 v 9.41926 c 0,11.27986 9.18668,20.46655 20.46654,20.46655 h 162.45316 c 27.21119,0 49.30576,-22.09455 49.30576,-49.30576 v 0 c 0,-61.05075 -67.67913,-97.913784 -118.96176,-64.77194 l -103.96074,66.9814 c -5.81434,3.72118 -9.30296,10.23327 -9.30296,17.21049 z m 54.30609,-2.5583 c -1.97686,-6.39581 0.58144,-13.02418 5.81437,-16.3965 l 48.72432,-31.51382 c 30.00208,-19.41996 69.65601,2.20946 69.65601,37.90962 v 0 c 0,10.93099 -8.83783,19.76881 -19.76881,19.76881 h -89.88999 c -6.39579,0 -12.6753,-3.72119 -14.5359,-9.76811 z"
   id="path5"
   style="fill:#00aa00;stroke-width:1.16287" />
</g>
</svg>
