<?xml version="1.0" encoding="UTF-8" standalone="no"?>
<svg
   viewBox="0 0 48 48"
   width="48px"
   height="48px"
   fill-rule="evenodd"
   clip-rule="evenodd"
   version="1.1"
   id="svg5"
   sodipodi:docname="icons8-whatsapp.svg"
   inkscape:version="1.4.2 (2aeb623e1d, 2025-05-12)"
   xmlns:inkscape="http://www.inkscape.org/namespaces/inkscape"
   xmlns:sodipodi="http://sodipodi.sourceforge.net/DTD/sodipodi-0.dtd"
   xmlns="http://www.w3.org/2000/svg"
   xmlns:svg="http://www.w3.org/2000/svg">
  <defs
     id="defs5" />
  <sodipodi:namedview
     id="namedview5"
     pagecolor="#ffffff"
     bordercolor="#000000"
     borderopacity="0.25"
     inkscape:showpageshadow="2"
     inkscape:pageopacity="0.0"
     inkscape:pagecheckerboard="0"
     inkscape:deskcolor="#d1d1d1"
     showgrid="false"
     inkscape:zoom="11.829307"
     inkscape:cx="20.161789"
     inkscape:cy="26.501975"
     inkscape:window-width="1856"
     inkscape:window-height="1011"
     inkscape:window-x="64"
     inkscape:window-y="32"
     inkscape:window-maximized="1"
     inkscape:current-layer="svg5" />
  <path
     fill="#ffffff"
     d="M 1.3534087,46.849034 4.5570143,35.153613 C 2.5806251,31.731201 1.5412965,27.847395 1.5424857,23.869643 1.5484315,11.425052 11.675345,1.3005162 24.121127,1.3005162 c 6.039759,0.00237 11.707311,2.3533538 15.970461,6.6188822 4.261962,4.2667166 6.609369,9.9366476 6.606991,15.9680826 -0.0048,12.444593 -10.134049,22.570318 -22.577452,22.570318 -0.0012,0 0,0 0,0 h -0.0094 c -3.777972,-0.0012 -7.491728,-0.948953 -10.789277,-2.748157 z"
     id="path1"
     style="stroke-width:1.18916" />
  <path
     fill="#ffffff"
     d="m 1.3534087,47.443615 c -0.1569695,0 -0.3091823,-0.06184 -0.42215288,-0.175996 C 0.78261043,47.116596 0.72434143,46.8966 0.7802321,46.693252 L 3.9184337,35.234476 C 1.9729628,31.778768 0.94671495,27.854531 0.94909328,23.870834 0.95384993,11.096842 11.348325,0.70593458 24.121127,0.70593458 30.316667,0.70831337 36.137621,3.121125 40.512552,7.4996238 44.887483,11.879312 47.295539,17.699076 47.29316,23.887481 47.28837,36.660283 36.89274,47.05238 24.121127,47.05238 20.328885,47.051182 16.577076,46.11532 13.247418,44.344655 L 1.5044325,47.423399 c -0.049945,0.01427 -0.099889,0.02022 -0.1510238,0.02021 z"
     id="path2"
     style="stroke-width:1.18916" />
  <path
     fill="#cfd8dc"
     d="m 24.121127,1.3005162 c 6.039759,0.00237 11.707311,2.3533538 15.970461,6.6188822 4.261962,4.2667166 6.609369,9.9366476 6.606991,15.9680826 -0.0048,12.444593 -10.134049,22.570318 -22.577452,22.570318 h -0.0094 C 20.333755,46.456599 16.619999,45.508846 13.32245,43.709642 L 1.3534087,46.849034 4.5570143,35.153613 C 2.5806251,31.731201 1.5412965,27.847395 1.5424857,23.869643 1.5484315,11.425052 11.675345,1.3005162 24.121127,1.3005162 m 0,45.1572828 c 0,0 0,0 0,0 0,0 0,0 0,0 m 0,0 c 0,0 0,0 0,0 0,0 0,0 0,0 m 0,-46.34644601 c 0,0 0,0 0,0 -13.099822,0 -23.76185867,10.65728101 -23.76780448,23.75829001 -0.001189,4.003913 1.00959948,7.949557 2.92653058,11.44213 L 0.20586629,46.536284 c -0.11178133,0.41026 0.002378,0.847873 0.30204744,1.149919 0.22594101,0.228321 0.53155597,0.353182 0.84549497,0.353182 0.1010784,0 0.2021578,-0.01309 0.3020475,-0.03925 L 13.17488,44.979669 c 3.362953,1.745692 7.1326,2.667293 10.936733,2.668482 13.109335,0 23.771372,-10.65847 23.777318,-23.75948 C 47.891309,17.539728 45.421418,11.57013 40.934705,7.0798493 36.445613,2.5883799 30.474825,0.11373132 24.121127,0.11135299 Z"
     id="path3"
     style="stroke-width:1.18916" />
  <path
     fill="#40c351"
     d="M 37.394566,10.614042 C 33.85086,7.0679576 29.140584,5.1141625 24.127072,5.1129733 c -10.350476,0 -18.7685617,8.4145187 -18.7733184,18.7578607 -0.00118,3.544895 0.990573,6.995846 2.8694508,9.984213 l 0.4471254,0.70993 -1.8967154,6.922119 7.1028716,-1.862229 0.686148,0.406694 c 2.880152,1.710017 6.183647,2.613781 9.551358,2.614969 h 0.0072 c 10.343341,0 18.761426,-8.415707 18.764993,-18.760237 0.0012,-5.012323 -1.947848,-9.726166 -5.491555,-13.272251 z"
     id="path4"
     style="stroke-width:1.18916" />
  <path
     fill="#ffffff"
     fill-rule="evenodd"
     d="m 18.477358,14.434824 c -0.422152,-0.93944 -0.8669,-0.958467 -1.270026,-0.975115 -0.329398,-0.01427 -0.705174,-0.01308 -1.08095,-0.01308 -0.375776,0 -0.987005,0.14151 -1.504291,0.706363 -0.517285,0.564852 -1.975199,1.928822 -1.975199,4.70433 0,2.775507 2.021576,5.458259 2.303409,5.834033 0.281831,0.375776 3.902833,6.25381 9.636978,8.515599 4.764977,1.878878 5.735334,1.50548 6.769905,1.411536 1.034573,-0.09394 3.337982,-1.36397 3.8077,-2.681563 0.46972,-1.317592 0.46972,-2.446108 0.329399,-2.681563 -0.14151,-0.235453 -0.517285,-0.375775 -1.08095,-0.658797 -0.563662,-0.283019 -3.33798,-1.646991 -3.855266,-1.834877 -0.517286,-0.187889 -0.893062,-0.281832 -1.270026,0.28302 -0.375775,0.563663 -1.456726,1.834879 -1.786124,2.210654 -0.329398,0.376965 -0.658795,0.424532 -1.22246,0.14151 -0.563662,-0.28302 -2.380703,-0.877601 -4.536656,-2.799289 -1.67672,-1.494778 -2.808805,-3.341549 -3.138202,-3.906402 -0.329398,-0.563662 -0.03568,-0.869277 0.247347,-1.151109 0.25329,-0.253292 0.563662,-0.658796 0.846683,-0.988194 0.281832,-0.329399 0.375776,-0.564854 0.563663,-0.940629 0.187889,-0.376964 0.09394,-0.706363 -0.04757,-0.988194 -0.139132,-0.283022 -1.235541,-3.072798 -1.737368,-4.188233 z"
     clip-rule="evenodd"
     id="path5"
     style="stroke-width:1.18916" />
</svg>
